G04 #@! TF.FileFunction,Legend,Top*
%FSLAX46Y46*%
G04 Gerber Fmt 4.6, Leading zero omitted, Abs format (unit mm)*
G04 Created by KiCad (PCBNEW 4.0.2-stable) date Fri 15 Jul 2016 21:48:07 BST*
%MOMM*%
G01*
G04 APERTURE LIST*
%ADD10C,0.100000*%
%ADD11C,0.300000*%
%ADD12C,0.200000*%
%ADD13C,0.150000*%
%ADD14C,0.254000*%
G04 APERTURE END LIST*
D10*
D11*
X88371429Y-79404286D02*
X88371429Y-77604286D01*
X88800001Y-77604286D01*
X89057144Y-77690000D01*
X89228572Y-77861429D01*
X89314287Y-78032857D01*
X89400001Y-78375714D01*
X89400001Y-78632857D01*
X89314287Y-78975714D01*
X89228572Y-79147143D01*
X89057144Y-79318571D01*
X88800001Y-79404286D01*
X88371429Y-79404286D01*
X90171429Y-79404286D02*
X90171429Y-78204286D01*
X90171429Y-77604286D02*
X90085715Y-77690000D01*
X90171429Y-77775714D01*
X90257144Y-77690000D01*
X90171429Y-77604286D01*
X90171429Y-77775714D01*
X90942858Y-79318571D02*
X91114287Y-79404286D01*
X91457144Y-79404286D01*
X91628572Y-79318571D01*
X91714287Y-79147143D01*
X91714287Y-79061429D01*
X91628572Y-78890000D01*
X91457144Y-78804286D01*
X91200001Y-78804286D01*
X91028572Y-78718571D01*
X90942858Y-78547143D01*
X90942858Y-78461429D01*
X91028572Y-78290000D01*
X91200001Y-78204286D01*
X91457144Y-78204286D01*
X91628572Y-78290000D01*
X92228573Y-78204286D02*
X92914287Y-78204286D01*
X92485715Y-77604286D02*
X92485715Y-79147143D01*
X92571430Y-79318571D01*
X92742858Y-79404286D01*
X92914287Y-79404286D01*
X93514286Y-79404286D02*
X93514286Y-78204286D01*
X93514286Y-78547143D02*
X93600001Y-78375714D01*
X93685715Y-78290000D01*
X93857144Y-78204286D01*
X94028572Y-78204286D01*
X94628572Y-79404286D02*
X94628572Y-78204286D01*
X94628572Y-77604286D02*
X94542858Y-77690000D01*
X94628572Y-77775714D01*
X94714287Y-77690000D01*
X94628572Y-77604286D01*
X94628572Y-77775714D01*
X95485715Y-79404286D02*
X95485715Y-77604286D01*
X95485715Y-78290000D02*
X95657144Y-78204286D01*
X96000001Y-78204286D01*
X96171430Y-78290000D01*
X96257144Y-78375714D01*
X96342858Y-78547143D01*
X96342858Y-79061429D01*
X96257144Y-79232857D01*
X96171430Y-79318571D01*
X96000001Y-79404286D01*
X95657144Y-79404286D01*
X95485715Y-79318571D01*
X97885715Y-78204286D02*
X97885715Y-79404286D01*
X97114286Y-78204286D02*
X97114286Y-79147143D01*
X97200001Y-79318571D01*
X97371429Y-79404286D01*
X97628572Y-79404286D01*
X97800001Y-79318571D01*
X97885715Y-79232857D01*
X98485715Y-78204286D02*
X99171429Y-78204286D01*
X98742857Y-77604286D02*
X98742857Y-79147143D01*
X98828572Y-79318571D01*
X99000000Y-79404286D01*
X99171429Y-79404286D01*
X99771428Y-79404286D02*
X99771428Y-78204286D01*
X99771428Y-77604286D02*
X99685714Y-77690000D01*
X99771428Y-77775714D01*
X99857143Y-77690000D01*
X99771428Y-77604286D01*
X99771428Y-77775714D01*
X100885714Y-79404286D02*
X100714286Y-79318571D01*
X100628571Y-79232857D01*
X100542857Y-79061429D01*
X100542857Y-78547143D01*
X100628571Y-78375714D01*
X100714286Y-78290000D01*
X100885714Y-78204286D01*
X101142857Y-78204286D01*
X101314286Y-78290000D01*
X101400000Y-78375714D01*
X101485714Y-78547143D01*
X101485714Y-79061429D01*
X101400000Y-79232857D01*
X101314286Y-79318571D01*
X101142857Y-79404286D01*
X100885714Y-79404286D01*
X102257142Y-78204286D02*
X102257142Y-79404286D01*
X102257142Y-78375714D02*
X102342857Y-78290000D01*
X102514285Y-78204286D01*
X102771428Y-78204286D01*
X102942857Y-78290000D01*
X103028571Y-78461429D01*
X103028571Y-79404286D01*
X90085715Y-81710000D02*
X90942858Y-81710000D01*
X89914287Y-82224286D02*
X90514287Y-80424286D01*
X91114287Y-82224286D01*
X91714286Y-82224286D02*
X91714286Y-81024286D01*
X91714286Y-81195714D02*
X91800001Y-81110000D01*
X91971429Y-81024286D01*
X92228572Y-81024286D01*
X92400001Y-81110000D01*
X92485715Y-81281429D01*
X92485715Y-82224286D01*
X92485715Y-81281429D02*
X92571429Y-81110000D01*
X92742858Y-81024286D01*
X93000001Y-81024286D01*
X93171429Y-81110000D01*
X93257144Y-81281429D01*
X93257144Y-82224286D01*
X94114286Y-81024286D02*
X94114286Y-82824286D01*
X94114286Y-81110000D02*
X94285715Y-81024286D01*
X94628572Y-81024286D01*
X94800001Y-81110000D01*
X94885715Y-81195714D01*
X94971429Y-81367143D01*
X94971429Y-81881429D01*
X94885715Y-82052857D01*
X94800001Y-82138571D01*
X94628572Y-82224286D01*
X94285715Y-82224286D01*
X94114286Y-82138571D01*
X96000000Y-82224286D02*
X95828572Y-82138571D01*
X95742857Y-81967143D01*
X95742857Y-80424286D01*
X96685714Y-82224286D02*
X96685714Y-81024286D01*
X96685714Y-80424286D02*
X96600000Y-80510000D01*
X96685714Y-80595714D01*
X96771429Y-80510000D01*
X96685714Y-80424286D01*
X96685714Y-80595714D01*
X97285715Y-81024286D02*
X97971429Y-81024286D01*
X97542857Y-82224286D02*
X97542857Y-80681429D01*
X97628572Y-80510000D01*
X97800000Y-80424286D01*
X97971429Y-80424286D01*
X98571428Y-82224286D02*
X98571428Y-81024286D01*
X98571428Y-80424286D02*
X98485714Y-80510000D01*
X98571428Y-80595714D01*
X98657143Y-80510000D01*
X98571428Y-80424286D01*
X98571428Y-80595714D01*
X100114286Y-82138571D02*
X99942857Y-82224286D01*
X99600000Y-82224286D01*
X99428571Y-82138571D01*
X99342857Y-81967143D01*
X99342857Y-81281429D01*
X99428571Y-81110000D01*
X99600000Y-81024286D01*
X99942857Y-81024286D01*
X100114286Y-81110000D01*
X100200000Y-81281429D01*
X100200000Y-81452857D01*
X99342857Y-81624286D01*
X100971428Y-82224286D02*
X100971428Y-81024286D01*
X100971428Y-81367143D02*
X101057143Y-81195714D01*
X101142857Y-81110000D01*
X101314286Y-81024286D01*
X101485714Y-81024286D01*
D12*
X91500000Y-71500000D02*
X89500000Y-71500000D01*
X91500000Y-71500000D02*
X91500000Y-73500000D01*
X89500000Y-73500000D02*
X89500000Y-71500000D01*
X91500000Y-73500000D02*
X89500000Y-73500000D01*
X91500000Y-74500000D02*
X91500000Y-76500000D01*
X89500000Y-74500000D02*
X91500000Y-74500000D01*
X89500000Y-76500000D02*
X89500000Y-74500000D01*
X91500000Y-76500000D02*
X89500000Y-76500000D01*
D11*
X64714287Y-69678571D02*
X64000001Y-69678571D01*
X63928572Y-70392857D01*
X64000001Y-70321429D01*
X64142858Y-70250000D01*
X64500001Y-70250000D01*
X64642858Y-70321429D01*
X64714287Y-70392857D01*
X64785715Y-70535714D01*
X64785715Y-70892857D01*
X64714287Y-71035714D01*
X64642858Y-71107143D01*
X64500001Y-71178571D01*
X64142858Y-71178571D01*
X64000001Y-71107143D01*
X63928572Y-71035714D01*
X65214286Y-69678571D02*
X65714286Y-71178571D01*
X66214286Y-69678571D01*
D12*
X91400000Y-85000000D02*
X91400000Y-88000000D01*
X98400000Y-85000000D02*
X91400000Y-85000000D01*
X98400000Y-88000000D02*
X98400000Y-85000000D01*
X91400000Y-88000000D02*
X98400000Y-88000000D01*
D11*
X92185715Y-86607143D02*
X93328572Y-86607143D01*
X92757143Y-87178571D02*
X92757143Y-86035714D01*
X94257144Y-86321429D02*
X94114286Y-86250000D01*
X94042858Y-86178571D01*
X93971429Y-86035714D01*
X93971429Y-85964286D01*
X94042858Y-85821429D01*
X94114286Y-85750000D01*
X94257144Y-85678571D01*
X94542858Y-85678571D01*
X94685715Y-85750000D01*
X94757144Y-85821429D01*
X94828572Y-85964286D01*
X94828572Y-86035714D01*
X94757144Y-86178571D01*
X94685715Y-86250000D01*
X94542858Y-86321429D01*
X94257144Y-86321429D01*
X94114286Y-86392857D01*
X94042858Y-86464286D01*
X93971429Y-86607143D01*
X93971429Y-86892857D01*
X94042858Y-87035714D01*
X94114286Y-87107143D01*
X94257144Y-87178571D01*
X94542858Y-87178571D01*
X94685715Y-87107143D01*
X94757144Y-87035714D01*
X94828572Y-86892857D01*
X94828572Y-86607143D01*
X94757144Y-86464286D01*
X94685715Y-86392857D01*
X94542858Y-86321429D01*
X96114286Y-87178571D02*
X96114286Y-85678571D01*
X96114286Y-87107143D02*
X95971429Y-87178571D01*
X95685715Y-87178571D01*
X95542857Y-87107143D01*
X95471429Y-87035714D01*
X95400000Y-86892857D01*
X95400000Y-86464286D01*
X95471429Y-86321429D01*
X95542857Y-86250000D01*
X95685715Y-86178571D01*
X95971429Y-86178571D01*
X96114286Y-86250000D01*
X97328572Y-86392857D02*
X97542858Y-86464286D01*
X97614286Y-86535714D01*
X97685715Y-86678571D01*
X97685715Y-86892857D01*
X97614286Y-87035714D01*
X97542858Y-87107143D01*
X97400000Y-87178571D01*
X96828572Y-87178571D01*
X96828572Y-85678571D01*
X97328572Y-85678571D01*
X97471429Y-85750000D01*
X97542858Y-85821429D01*
X97614286Y-85964286D01*
X97614286Y-86107143D01*
X97542858Y-86250000D01*
X97471429Y-86321429D01*
X97328572Y-86392857D01*
X96828572Y-86392857D01*
D12*
X61250000Y-64500000D02*
X62750000Y-64500000D01*
X62000000Y-66250000D02*
X62000000Y-67750000D01*
X61250000Y-67000000D02*
X62750000Y-67000000D01*
D11*
X93128571Y-72304286D02*
X93128571Y-73504286D01*
X92700000Y-71618571D02*
X92271428Y-72904286D01*
X93385714Y-72904286D01*
X93900000Y-71704286D02*
X95014286Y-71704286D01*
X94414286Y-72390000D01*
X94671428Y-72390000D01*
X94842857Y-72475714D01*
X94928571Y-72561429D01*
X95014286Y-72732857D01*
X95014286Y-73161429D01*
X94928571Y-73332857D01*
X94842857Y-73418571D01*
X94671428Y-73504286D01*
X94157143Y-73504286D01*
X93985714Y-73418571D01*
X93900000Y-73332857D01*
X96557143Y-72304286D02*
X96557143Y-73504286D01*
X96128572Y-71618571D02*
X95700000Y-72904286D01*
X96814286Y-72904286D01*
X97500000Y-73504286D02*
X97500000Y-71704286D01*
X98100000Y-72990000D01*
X98700000Y-71704286D01*
X98700000Y-73504286D01*
X99557143Y-73504286D02*
X99557143Y-71704286D01*
X99557143Y-72561429D02*
X100585715Y-72561429D01*
X100585715Y-73504286D02*
X100585715Y-71704286D01*
X101271429Y-72304286D02*
X102214286Y-72304286D01*
X101271429Y-73504286D01*
X102214286Y-73504286D01*
X92614285Y-75295714D02*
X92442857Y-75210000D01*
X92357142Y-75124286D01*
X92271428Y-74952857D01*
X92271428Y-74867143D01*
X92357142Y-74695714D01*
X92442857Y-74610000D01*
X92614285Y-74524286D01*
X92957142Y-74524286D01*
X93128571Y-74610000D01*
X93214285Y-74695714D01*
X93300000Y-74867143D01*
X93300000Y-74952857D01*
X93214285Y-75124286D01*
X93128571Y-75210000D01*
X92957142Y-75295714D01*
X92614285Y-75295714D01*
X92442857Y-75381429D01*
X92357142Y-75467143D01*
X92271428Y-75638571D01*
X92271428Y-75981429D01*
X92357142Y-76152857D01*
X92442857Y-76238571D01*
X92614285Y-76324286D01*
X92957142Y-76324286D01*
X93128571Y-76238571D01*
X93214285Y-76152857D01*
X93300000Y-75981429D01*
X93300000Y-75638571D01*
X93214285Y-75467143D01*
X93128571Y-75381429D01*
X92957142Y-75295714D01*
X94842857Y-74524286D02*
X94500000Y-74524286D01*
X94328571Y-74610000D01*
X94242857Y-74695714D01*
X94071428Y-74952857D01*
X93985714Y-75295714D01*
X93985714Y-75981429D01*
X94071428Y-76152857D01*
X94157143Y-76238571D01*
X94328571Y-76324286D01*
X94671428Y-76324286D01*
X94842857Y-76238571D01*
X94928571Y-76152857D01*
X95014286Y-75981429D01*
X95014286Y-75552857D01*
X94928571Y-75381429D01*
X94842857Y-75295714D01*
X94671428Y-75210000D01*
X94328571Y-75210000D01*
X94157143Y-75295714D01*
X94071428Y-75381429D01*
X93985714Y-75552857D01*
X95871429Y-76324286D02*
X96214286Y-76324286D01*
X96385714Y-76238571D01*
X96471429Y-76152857D01*
X96642857Y-75895714D01*
X96728572Y-75552857D01*
X96728572Y-74867143D01*
X96642857Y-74695714D01*
X96557143Y-74610000D01*
X96385714Y-74524286D01*
X96042857Y-74524286D01*
X95871429Y-74610000D01*
X95785714Y-74695714D01*
X95700000Y-74867143D01*
X95700000Y-75295714D01*
X95785714Y-75467143D01*
X95871429Y-75552857D01*
X96042857Y-75638571D01*
X96385714Y-75638571D01*
X96557143Y-75552857D01*
X96642857Y-75467143D01*
X96728572Y-75295714D01*
X97500000Y-76324286D02*
X97500000Y-74524286D01*
X98100000Y-75810000D01*
X98700000Y-74524286D01*
X98700000Y-76324286D01*
X99557143Y-76324286D02*
X99557143Y-74524286D01*
X99557143Y-75381429D02*
X100585715Y-75381429D01*
X100585715Y-76324286D02*
X100585715Y-74524286D01*
X101271429Y-75124286D02*
X102214286Y-75124286D01*
X101271429Y-76324286D01*
X102214286Y-76324286D01*
D13*
X83125000Y-80700000D02*
X83125000Y-81200000D01*
X84075000Y-81200000D02*
X84075000Y-80700000D01*
X70250000Y-72650000D02*
X69250000Y-72650000D01*
X69250000Y-74350000D02*
X70250000Y-74350000D01*
X77225000Y-71250000D02*
X77225000Y-70750000D01*
X76275000Y-70750000D02*
X76275000Y-71250000D01*
X82675000Y-89700000D02*
X82675000Y-89200000D01*
X81725000Y-89200000D02*
X81725000Y-89700000D01*
X73250000Y-74350000D02*
X74250000Y-74350000D01*
X74250000Y-72650000D02*
X73250000Y-72650000D01*
X80075000Y-86350000D02*
X80075000Y-86850000D01*
X81025000Y-86850000D02*
X81025000Y-86350000D01*
X84525000Y-90550000D02*
X84525000Y-91050000D01*
X85475000Y-91050000D02*
X85475000Y-90550000D01*
X74200000Y-83800000D02*
X66200000Y-83800000D01*
X66200000Y-88200000D02*
X74300000Y-88200000D01*
X84350000Y-70225000D02*
X83850000Y-70225000D01*
X83850000Y-71275000D02*
X84350000Y-71275000D01*
X83500000Y-89475000D02*
X84000000Y-89475000D01*
X84000000Y-88425000D02*
X83500000Y-88425000D01*
X82850000Y-93525000D02*
X83350000Y-93525000D01*
X83350000Y-92475000D02*
X82850000Y-92475000D01*
X86648008Y-94555546D02*
X86294454Y-94201992D01*
X85551992Y-94944454D02*
X85905546Y-95298008D01*
X87100000Y-92475000D02*
X86600000Y-92475000D01*
X86600000Y-93525000D02*
X87100000Y-93525000D01*
X84044454Y-95298008D02*
X84398008Y-94944454D01*
X83655546Y-94201992D02*
X83301992Y-94555546D01*
X82350000Y-86575000D02*
X81850000Y-86575000D01*
X81850000Y-87625000D02*
X82350000Y-87625000D01*
X64750000Y-99475000D02*
X64250000Y-99475000D01*
X64250000Y-100525000D02*
X64750000Y-100525000D01*
X92194454Y-100298008D02*
X92548008Y-99944454D01*
X91805546Y-99201992D02*
X91451992Y-99555546D01*
X105250000Y-100275000D02*
X105750000Y-100275000D01*
X105750000Y-99225000D02*
X105250000Y-99225000D01*
X78548008Y-99555546D02*
X78194454Y-99201992D01*
X77451992Y-99944454D02*
X77805546Y-100298008D01*
X85670800Y-83771340D02*
X85670800Y-83202380D01*
X85670800Y-83202380D02*
X85259320Y-83202380D01*
X68950000Y-64950000D02*
X68950000Y-68450000D01*
X68950000Y-68450000D02*
X75450000Y-68450000D01*
X75450000Y-68450000D02*
X75450000Y-64950000D01*
X75450000Y-64950000D02*
X68950000Y-64950000D01*
X85100000Y-77600000D02*
X85100000Y-76600000D01*
X85900000Y-75500000D02*
X86300000Y-75100000D01*
X86300000Y-75100000D02*
X86300000Y-75900000D01*
X86300000Y-75900000D02*
X85900000Y-75500000D01*
X84100000Y-78500000D02*
X84400000Y-78500000D01*
X82800000Y-78500000D02*
X83100000Y-78500000D01*
X82100000Y-76400000D02*
X82100000Y-77600000D01*
X83100000Y-75500000D02*
X82800000Y-75500000D01*
X84100000Y-75500000D02*
X84400000Y-75500000D01*
X63730000Y-65730000D02*
X63730000Y-63190000D01*
X63450000Y-68550000D02*
X63450000Y-67000000D01*
X63730000Y-65730000D02*
X66270000Y-65730000D01*
X66550000Y-67000000D02*
X66550000Y-68550000D01*
X66550000Y-68550000D02*
X63450000Y-68550000D01*
X66270000Y-65730000D02*
X66270000Y-63190000D01*
X66270000Y-63190000D02*
X63730000Y-63190000D01*
D14*
G36*
X91373000Y-73373000D02*
X89627000Y-73373000D01*
X89627000Y-71627000D01*
X91373000Y-71627000D01*
X91373000Y-73373000D01*
X91373000Y-73373000D01*
G37*
X91373000Y-73373000D02*
X89627000Y-73373000D01*
X89627000Y-71627000D01*
X91373000Y-71627000D01*
X91373000Y-73373000D01*
G36*
X91373000Y-76373000D02*
X89627000Y-76373000D01*
X89627000Y-74627000D01*
X91373000Y-74627000D01*
X91373000Y-76373000D01*
X91373000Y-76373000D01*
G37*
X91373000Y-76373000D02*
X89627000Y-76373000D01*
X89627000Y-74627000D01*
X91373000Y-74627000D01*
X91373000Y-76373000D01*
M02*
