G04 #@! TF.FileFunction,Soldermask,Top*
%FSLAX46Y46*%
G04 Gerber Fmt 4.6, Leading zero omitted, Abs format (unit mm)*
G04 Created by KiCad (PCBNEW 4.0.2-stable) date Fri 15 Jul 2016 21:48:07 BST*
%MOMM*%
G01*
G04 APERTURE LIST*
%ADD10C,0.100000*%
%ADD11R,1.450000X5.000000*%
%ADD12R,2.250000X7.000000*%
%ADD13C,2.000000*%
%ADD14C,2.200000*%
%ADD15R,0.500000X0.600000*%
%ADD16R,1.000000X1.250000*%
%ADD17R,2.370000X2.430000*%
%ADD18R,0.400000X0.600000*%
%ADD19R,0.398780X1.501140*%
%ADD20R,0.600000X2.200000*%
%ADD21R,3.500000X2.200000*%
%ADD22R,1.000000X1.600000*%
%ADD23R,0.800000X1.400000*%
%ADD24R,1.000000X1.400000*%
%ADD25R,2.032000X2.032000*%
%ADD26O,2.032000X2.032000*%
%ADD27C,0.254000*%
G04 APERTURE END LIST*
D10*
D11*
X92500000Y-105000000D03*
D12*
X95040000Y-105000000D03*
X89960000Y-105000000D03*
D13*
X92500000Y-105000000D03*
D14*
X89960000Y-102460000D03*
X89960000Y-107540000D03*
X95040000Y-102460000D03*
X95040000Y-107540000D03*
D15*
X83600000Y-81500000D03*
X83600000Y-80400000D03*
D16*
X68750000Y-73500000D03*
X70750000Y-73500000D03*
D15*
X76750000Y-70450000D03*
X76750000Y-71550000D03*
X82200000Y-88900000D03*
X82200000Y-90000000D03*
D16*
X74750000Y-73500000D03*
X72750000Y-73500000D03*
D15*
X80550000Y-87150000D03*
X80550000Y-86050000D03*
X85000000Y-91350000D03*
X85000000Y-90250000D03*
D17*
X66880000Y-86000000D03*
X73120000Y-86000000D03*
D18*
X83650000Y-70750000D03*
X84550000Y-70750000D03*
X84200000Y-88950000D03*
X83300000Y-88950000D03*
X83550000Y-93000000D03*
X82650000Y-93000000D03*
D10*
G36*
X85428249Y-94502513D02*
X85852513Y-94078249D01*
X86135355Y-94361091D01*
X85711091Y-94785355D01*
X85428249Y-94502513D01*
X85428249Y-94502513D01*
G37*
G36*
X86064645Y-95138909D02*
X86488909Y-94714645D01*
X86771751Y-94997487D01*
X86347487Y-95421751D01*
X86064645Y-95138909D01*
X86064645Y-95138909D01*
G37*
D18*
X86400000Y-93000000D03*
X87300000Y-93000000D03*
D10*
G36*
X84097487Y-94078249D02*
X84521751Y-94502513D01*
X84238909Y-94785355D01*
X83814645Y-94361091D01*
X84097487Y-94078249D01*
X84097487Y-94078249D01*
G37*
G36*
X83461091Y-94714645D02*
X83885355Y-95138909D01*
X83602513Y-95421751D01*
X83178249Y-94997487D01*
X83461091Y-94714645D01*
X83461091Y-94714645D01*
G37*
D11*
X83600000Y-65000000D03*
D12*
X86140000Y-65000000D03*
X81060000Y-65000000D03*
D13*
X83600000Y-65000000D03*
D14*
X81060000Y-62460000D03*
X81060000Y-67540000D03*
X86140000Y-62460000D03*
X86140000Y-67540000D03*
D11*
X65000000Y-105000000D03*
D12*
X67540000Y-105000000D03*
X62460000Y-105000000D03*
D13*
X65000000Y-105000000D03*
D14*
X62460000Y-102460000D03*
X62460000Y-107540000D03*
X67540000Y-102460000D03*
X67540000Y-107540000D03*
D11*
X105000000Y-105000000D03*
D12*
X107540000Y-105000000D03*
X102460000Y-105000000D03*
D13*
X105000000Y-105000000D03*
D14*
X102460000Y-102460000D03*
X102460000Y-107540000D03*
X107540000Y-102460000D03*
X107540000Y-107540000D03*
D11*
X77500000Y-105000000D03*
D12*
X80040000Y-105000000D03*
X74960000Y-105000000D03*
D13*
X77500000Y-105000000D03*
D14*
X74960000Y-102460000D03*
X74960000Y-107540000D03*
X80040000Y-102460000D03*
X80040000Y-107540000D03*
D18*
X81650000Y-87100000D03*
X82550000Y-87100000D03*
X64050000Y-100000000D03*
X64950000Y-100000000D03*
D10*
G36*
X92247487Y-99078249D02*
X92671751Y-99502513D01*
X92388909Y-99785355D01*
X91964645Y-99361091D01*
X92247487Y-99078249D01*
X92247487Y-99078249D01*
G37*
G36*
X91611091Y-99714645D02*
X92035355Y-100138909D01*
X91752513Y-100421751D01*
X91328249Y-99997487D01*
X91611091Y-99714645D01*
X91611091Y-99714645D01*
G37*
D18*
X105950000Y-99750000D03*
X105050000Y-99750000D03*
D10*
G36*
X77328249Y-99502513D02*
X77752513Y-99078249D01*
X78035355Y-99361091D01*
X77611091Y-99785355D01*
X77328249Y-99502513D01*
X77328249Y-99502513D01*
G37*
G36*
X77964645Y-100138909D02*
X78388909Y-99714645D01*
X78671751Y-99997487D01*
X78247487Y-100421751D01*
X77964645Y-100138909D01*
X77964645Y-100138909D01*
G37*
D19*
X85000240Y-84419040D03*
X84350000Y-84419040D03*
X83699760Y-84419040D03*
X83699760Y-87080960D03*
X84350000Y-87080960D03*
X85000240Y-87080960D03*
D20*
X69660000Y-69700000D03*
X70930000Y-69700000D03*
X72200000Y-69700000D03*
X73470000Y-69700000D03*
X74740000Y-69700000D03*
D21*
X72200000Y-63500000D03*
D22*
X85000000Y-75650000D03*
D23*
X83600000Y-75550000D03*
D24*
X82200000Y-75550000D03*
X82200000Y-78450000D03*
D23*
X83600000Y-78450000D03*
D24*
X85000000Y-78450000D03*
D25*
X65000000Y-67000000D03*
D26*
X65000000Y-64460000D03*
D27*
G36*
X109873000Y-109873000D02*
X60127000Y-109873000D01*
X60127000Y-61000000D01*
X60873000Y-61000000D01*
X60873000Y-70000000D01*
X60883006Y-70049410D01*
X60911447Y-70091035D01*
X60953841Y-70118315D01*
X61000000Y-70127000D01*
X62873000Y-70127000D01*
X62873000Y-99873000D01*
X61000000Y-99873000D01*
X60950590Y-99883006D01*
X60908965Y-99911447D01*
X60881685Y-99953841D01*
X60873000Y-100000000D01*
X60873000Y-109000000D01*
X60883006Y-109049410D01*
X60911447Y-109091035D01*
X60953841Y-109118315D01*
X61000000Y-109127000D01*
X109000000Y-109127000D01*
X109049410Y-109116994D01*
X109091035Y-109088553D01*
X109118315Y-109046159D01*
X109127000Y-109000000D01*
X109127000Y-100000000D01*
X109116994Y-99950590D01*
X109088553Y-99908965D01*
X109046159Y-99881685D01*
X109000000Y-99873000D01*
X107127000Y-99873000D01*
X107127000Y-70127000D01*
X109000000Y-70127000D01*
X109049410Y-70116994D01*
X109091035Y-70088553D01*
X109118315Y-70046159D01*
X109127000Y-70000000D01*
X109127000Y-61000000D01*
X109116994Y-60950590D01*
X109088553Y-60908965D01*
X109046159Y-60881685D01*
X109000000Y-60873000D01*
X100000000Y-60873000D01*
X99950590Y-60883006D01*
X99908965Y-60911447D01*
X99881685Y-60953841D01*
X99873000Y-61000000D01*
X99873000Y-63073000D01*
X88527000Y-63073000D01*
X88527000Y-61000000D01*
X88516994Y-60950590D01*
X88488553Y-60908965D01*
X88446159Y-60881685D01*
X88400000Y-60873000D01*
X61000000Y-60873000D01*
X60950590Y-60883006D01*
X60908965Y-60911447D01*
X60881685Y-60953841D01*
X60873000Y-61000000D01*
X60127000Y-61000000D01*
X60127000Y-60127000D01*
X109873000Y-60127000D01*
X109873000Y-109873000D01*
X109873000Y-109873000D01*
G37*
X109873000Y-109873000D02*
X60127000Y-109873000D01*
X60127000Y-61000000D01*
X60873000Y-61000000D01*
X60873000Y-70000000D01*
X60883006Y-70049410D01*
X60911447Y-70091035D01*
X60953841Y-70118315D01*
X61000000Y-70127000D01*
X62873000Y-70127000D01*
X62873000Y-99873000D01*
X61000000Y-99873000D01*
X60950590Y-99883006D01*
X60908965Y-99911447D01*
X60881685Y-99953841D01*
X60873000Y-100000000D01*
X60873000Y-109000000D01*
X60883006Y-109049410D01*
X60911447Y-109091035D01*
X60953841Y-109118315D01*
X61000000Y-109127000D01*
X109000000Y-109127000D01*
X109049410Y-109116994D01*
X109091035Y-109088553D01*
X109118315Y-109046159D01*
X109127000Y-109000000D01*
X109127000Y-100000000D01*
X109116994Y-99950590D01*
X109088553Y-99908965D01*
X109046159Y-99881685D01*
X109000000Y-99873000D01*
X107127000Y-99873000D01*
X107127000Y-70127000D01*
X109000000Y-70127000D01*
X109049410Y-70116994D01*
X109091035Y-70088553D01*
X109118315Y-70046159D01*
X109127000Y-70000000D01*
X109127000Y-61000000D01*
X109116994Y-60950590D01*
X109088553Y-60908965D01*
X109046159Y-60881685D01*
X109000000Y-60873000D01*
X100000000Y-60873000D01*
X99950590Y-60883006D01*
X99908965Y-60911447D01*
X99881685Y-60953841D01*
X99873000Y-61000000D01*
X99873000Y-63073000D01*
X88527000Y-63073000D01*
X88527000Y-61000000D01*
X88516994Y-60950590D01*
X88488553Y-60908965D01*
X88446159Y-60881685D01*
X88400000Y-60873000D01*
X61000000Y-60873000D01*
X60950590Y-60883006D01*
X60908965Y-60911447D01*
X60881685Y-60953841D01*
X60873000Y-61000000D01*
X60127000Y-61000000D01*
X60127000Y-60127000D01*
X109873000Y-60127000D01*
X109873000Y-109873000D01*
M02*
