M48
;DRILL file {KiCad 4.0.2-stable} date Fri 15 Jul 2016 21:48:10 BST
;FORMAT={-:-/ absolute / inch / decimal}
FMAT,2
INCH,TZ
T1C0.020
T2C0.040
T3C0.059
T4C0.063
%
G90
G05
M72
T1
X2.5197Y-3.8878
X2.5591Y-3.8484
X2.5984Y-3.8091
X2.6083Y-3.9469
X2.6378Y-3.7697
X2.6378Y-3.9075
X2.6772Y-3.7303
X2.6772Y-3.8681
X2.7165Y-3.6909
X2.7165Y-3.8287
X2.7559Y-3.6516
X2.7559Y-3.7894
X2.8051Y-3.622
X2.8051Y-3.7402
X2.8543Y-3.622
X2.8543Y-3.7008
X2.9035Y-3.622
X2.9035Y-3.7008
X2.9528Y-3.622
X2.9528Y-3.7008
X3.002Y-3.622
X3.002Y-3.7008
X3.0118Y-3.9567
X3.0512Y-3.622
X3.0512Y-3.7008
X3.1004Y-3.622
X3.1004Y-3.7008
X3.1201Y-3.8484
X3.1496Y-3.622
X3.1496Y-3.7008
X3.1496Y-3.9567
X3.1594Y-3.8091
X3.189Y-3.9173
X3.1988Y-3.622
X3.1988Y-3.7008
X3.1988Y-3.7697
X3.2283Y-3.248
X3.2283Y-3.3268
X3.2283Y-3.878
X3.2382Y-3.1594
X3.2382Y-3.7205
X3.248Y-2.7264
X3.248Y-2.7854
X3.248Y-2.8346
X3.248Y-2.8937
X3.2677Y-3.8386
X3.3071Y-3.7992
X3.3366Y-2.7264
X3.3366Y-2.8346
X3.3366Y-2.8937
X3.3465Y-3.1594
X3.3465Y-3.248
X3.3465Y-3.7598
X3.3858Y-3.7992
X3.4252Y-3.8386
X3.4646Y-3.7205
X3.4646Y-3.878
X3.4843Y-3.622
X3.5039Y-3.7598
X3.5039Y-3.9173
X3.5335Y-3.622
X3.5335Y-3.7008
X3.5433Y-3.7992
X3.5433Y-3.9567
X3.5827Y-3.622
X3.5827Y-3.7008
X3.5827Y-3.8386
X3.6319Y-3.622
X3.6319Y-3.7008
X3.6811Y-3.622
X3.6811Y-3.7008
X3.7008Y-3.9567
X3.7303Y-3.622
X3.7303Y-3.7008
X3.7795Y-3.622
X3.7795Y-3.7008
X3.8287Y-3.622
X3.8287Y-3.7008
X3.878Y-3.622
X3.878Y-3.7008
X3.9173Y-3.7402
X3.937Y-3.6417
X3.9567Y-3.7795
X3.9764Y-3.6811
X3.9961Y-3.8189
X4.0157Y-3.7205
X4.0354Y-3.8583
X4.0551Y-3.7598
X4.0748Y-3.8976
X4.0945Y-3.7992
X4.0945Y-3.9469
X4.1339Y-3.8386
T2
X2.5591Y-2.5378
X2.5591Y-2.6378
T3
X2.5591Y-4.1339
X3.0512Y-4.1339
X3.2913Y-2.5591
X3.6417Y-4.1339
X4.1339Y-4.1339
T4
X2.4591Y-4.0339
X2.4591Y-4.2339
X2.6591Y-4.0339
X2.6591Y-4.2339
X2.9512Y-4.0339
X2.9512Y-4.2339
X3.1512Y-4.0339
X3.1512Y-4.2339
X3.1913Y-2.4591
X3.1913Y-2.6591
X3.3913Y-2.4591
X3.3913Y-2.6591
X3.5417Y-4.0339
X3.5417Y-4.2339
X3.7417Y-4.0339
X3.7417Y-4.2339
X4.0339Y-4.0339
X4.0339Y-4.2339
X4.2339Y-4.0339
X4.2339Y-4.2339
T0
M30
